{"title":"The.Demented.2013.BDRiP.AC3-5.1.XviD-AXED","uid":8652547,"size":1478989931,"categoryP":"video","categoryS":"movies","magnet":"?xt=urn:btih:43b92aaf2b160520d3af81245a6be363fa806e31&amp;dn=The.Demented.2013.BDRiP.AC3-5.1.XviD-AXED&amp;tr=udp%3A%2F%2Ftracker.openbittorrent.com%3A80&amp;tr=udp%3A%2F%2Fopen.demonii.com%3A1337&amp;tr=udp%3A%2F%2Ftracker.coppersurfer.tk%3A6969&amp;tr=udp%3A%2F%2Fexodus.desync.com%3A6969","seeders":6,"leechers":3,"uploader":"juggs99","files":4,"time":1373143189,"description":"IMDB:  &lt;a href=&quot;\nhttp://www.imdb.com/title/tt2113792&quot; rel=&quot;nofollow&quot; target=&quot;_NEW&quot;&gt;\nhttp://www.imdb.com/title/tt2113792&lt;/a&gt;\n\nPLOT INFO:\nSix college friends unite for a weekend getaway where they find themselves fighting for their lives after a terrorist attack turns the local residents into rage infused zombies.\n\nMedia Info:\nGeneral\nComplete name                            : The.Demented.2013.BDRiP.AC3-5.1.XviD-AXED.avi\nFormat                                   : AVI\nFormat/Info                              : Audio Video Interleave\nFile size                                : 1.36 GiB\nDuration                                 : 1h 32mn\nOverall bit rate                         : 2 118 Kbps\n\nVideo\nID                                       : 0\nFormat                                   : MPEG-4 Visual\nFormat profile                           : Advanced Simple@L5\nFormat settings, BVOP                    : 2\nFormat settings, QPel                    : No\nFormat settings, GMC                     : No warppoints\nFormat settings, Matrix                  : Default (H.263)\nMuxing mode                              : Packed bitstream\nCodec ID                                 : XVID\nCodec ID/Hint                            : XviD\nDuration                                 : 1h 32mn\nBit rate                                 : 1 662 Kbps\nWidth                                    : 720 pixels\nHeight                                   : 400 pixels\nDisplay aspect ratio                     : 16:9\nFrame rate                               : 23.976 fps\nColor space                              : YUV\nChroma subsampling                       : 4:2:0\nBit depth                                : 8 bits\nScan type                                : Progressive\nCompression mode                         : Lossy\nBits/(Pixel*Frame)                       : 0.241\nStream size                              : 1.07 GiB (78%)\nWriting library                          : XviD 64\n\nAudio\nID                                       : 1\nFormat                                   : AC-3\nFormat/Info                              : Audio Coding 3\nMode extension                           : CM (complete main)\nFormat settings, Endianness              : Big\nCodec ID                                 : 2000\nDuration                                 : 1h 32mn\nBit rate mode                            : Constant\nBit rate                                 : 448 Kbps\nChannel(s)                               : 6 channels\nChannel positions                        : Front: L C R, Side: L R, LFE\nSampling rate                            : 48.0 KHz\nBit depth                                : 16 bits\nCompression mode                         : Lossy\nStream size                              : 295 MiB (21%)\nAlignment                                : Aligned on interleaves\nInterleave, duration                     : 64 ms (1.53 video frames)\nInterleave, preload duration             : 192 ms\nTitle                                    : thedemented\n\n\n\nSOURCE: \nRetail RA Blu-Ray DISC\n\nNOTES: \nEnjoy this new infection/zombie film.\n\nAXED! We do this better.\n &lt;a href=&quot;\nhttp://imageshack.us/a/img826/9015/57m.png&quot; rel=&quot;nofollow&quot; target=&quot;_NEW&quot;&gt;\nhttp://imageshack.us/a/img826/9015/57m.png&lt;/a&gt; &lt;a href=&quot;\nhttp://imageshack.us/a/img221/1559/5ql.png&quot; rel=&quot;nofollow&quot; target=&quot;_NEW&quot;&gt;\nhttp://imageshack.us/a/img221/1559/5ql.png&lt;/a&gt; &lt;a href=&quot;\nhttp://imageshack.us/a/img832/3700/54n.png&quot; rel=&quot;nofollow&quot; target=&quot;_NEW&quot;&gt;\nhttp://imageshack.us/a/img832/3700/54n.png&lt;/a&gt;","torrent":{"xt":"urn:btih:43b92aaf2b160520d3af81245a6be363fa806e31","amp;dn":"The.Demented.2013.BDRiP.AC3-5.1.XviD-AXED","amp;tr":["udp%3A%2F%2Ftracker.openbittorrent.com%3A80","udp%3A%2F%2Fopen.demonii.com%3A1337","udp%3A%2F%2Ftracker.coppersurfer.tk%3A6969","udp%3A%2F%2Fexodus.desync.com%3A6969"],"infoHash":"43b92aaf2b160520d3af81245a6be363fa806e31","infoHashBuffer":{"type":"Buffer","data":[67,185,42,175,43,22,5,32,211,175,129,36,90,107,227,99,250,128,110,49]},"announce":[],"urlList":[]}}